<?xml version="1.0"?>
<svg xmlns="http://www.w3.org/2000/svg" xmlns:xlink="http://www.w3.org/1999/xlink" xmlns:svgjs="http://svgjs.com/svgjs" version="1.1" width="512" height="512" x="0" y="0" viewBox="0 0 512 512" style="enable-background:new 0 0 512 512" xml:space="preserve"><g><g xmlns="http://www.w3.org/2000/svg"><path d="m471.367 99.4h-75.334v-9.633c0-10.545-6.982-19.49-16.566-22.455v-26.679c0-22.405-18.229-40.633-40.634-40.633h-100.966c-4.143 0-7.5 3.358-7.5 7.5s3.357 7.5 7.5 7.5h100.966c14.135 0 25.634 11.499 25.634 25.633v25.633h-18.134v-16.314c0-9.274-7.545-16.819-16.818-16.819h-147.03c-9.273 0-16.818 7.545-16.818 16.819v16.314h-18.134v-25.633c0-14.134 11.499-25.633 25.634-25.633h34.7c4.143 0 7.5-3.358 7.5-7.5s-3.357-7.5-7.5-7.5h-34.7c-22.405 0-40.634 18.228-40.634 40.633v26.678c-9.584 2.965-16.566 11.91-16.566 22.455v9.634h-75.334c-22.405 0-40.633 18.228-40.633 40.633v101.462c0 10.51 6.873 19.675 16.566 22.866v207.005c0 22.406 18.229 40.634 40.634 40.634h42.098c4.143 0 7.5-3.358 7.5-7.5s-3.357-7.5-7.5-7.5h-42.098c-14.135 0-25.634-11.499-25.634-25.633v-204.592l150.667 20.089v51.969c0 13.271 10.796 24.066 24.066 24.066h9.067v31.961c0 9.175 5.098 17.423 13.303 21.525l16.566 8.284c3.37 1.685 7.066 2.527 10.764 2.527 3.696 0 7.394-.842 10.764-2.527l16.566-8.284c8.205-4.102 13.303-12.351 13.303-21.525v-31.96h9.067c13.271 0 24.066-10.796 24.066-24.066v-51.969l150.667-20.089v204.592c0 14.134-11.499 25.633-25.634 25.633h-325.5c-4.143 0-7.5 3.358-7.5 7.5s3.357 7.5 7.5 7.5h325.502c22.405 0 40.634-18.228 40.634-40.633v-207.006c9.694-3.191 16.566-12.356 16.566-22.866v-101.463c0-22.405-18.228-40.633-40.633-40.633zm-99.4-18.133h.566c4.686 0 8.5 3.813 8.5 8.5v9.633h-51.267v-9.633c0-4.687 3.814-8.5 8.5-8.5h.566zm-189.482-33.134h147.029c1.003 0 1.818.816 1.818 1.819v17.359c-9.584 2.965-16.566 11.91-16.566 22.455v9.634h-117.533v-9.633c0-10.545-6.982-19.49-16.566-22.455v-17.36c0-1.003.815-1.819 1.818-1.819zm-51.518 41.634c0-4.687 3.814-8.5 8.5-8.5h.566 33.134.566c4.687 0 8.5 3.813 8.5 8.5v9.633h-51.267v-9.633zm150.666 305.094c0 3.457-1.92 6.564-5.012 8.109l-16.566 8.284c-2.539 1.27-5.57 1.27-8.109 0l-16.566-8.284c-3.092-1.546-5.012-4.653-5.012-8.109v-31.961h51.266v31.961zm33.134-56.028c0 4.999-4.067 9.066-9.066 9.066h-99.4c-4.999 0-9.066-4.067-9.066-9.066v-74.55c0-.432.352-.783.783-.783h17.351v58.767c0 4.142 3.357 7.5 7.5 7.5h66.266c4.143 0 7.5-3.358 7.5-7.5v-58.767h17.351c.432 0 .783.352.783.783v74.55zm-25.634-156.6h-66.266-8.567c-.275 0-.5-.224-.5-.5v-17.133c0-.276.225-.5.5-.5h83.4c.275 0 .5.224.5.5v17.133c0 .276-.225.5-.5.5zm-7.5 15v117.533h-51.266v-117.533zm215.367 44.263c0 4.525-3.383 8.389-7.868 8.987l-159.365 21.249v-7.448c0-8.703-7.08-15.783-15.783-15.783h-17.351v-51.267h1.067c8.547 0 15.5-6.953 15.5-15.5v-17.134c0-8.547-6.953-15.5-15.5-15.5h-83.4c-8.547 0-15.5 6.953-15.5 15.5v17.133c0 8.547 6.953 15.5 15.5 15.5h1.067v51.267h-17.351c-8.703 0-15.783 7.08-15.783 15.783v7.448l-159.365-21.248c-4.485-.598-7.868-4.462-7.868-8.987v-101.463c0-14.134 11.499-25.633 25.633-25.633h430.734c14.134 0 25.633 11.499 25.633 25.633z" fill="#ffffff" data-original="#000000" style=""/><path d="m147.533 463.367v-17.133c0-8.547-6.953-15.5-15.5-15.5h-66.833c-8.547 0-15.5 6.953-15.5 15.5v17.133c0 8.547 6.953 15.5 15.5 15.5h66.833c8.547 0 15.5-6.953 15.5-15.5zm-82.833 0v-17.133c0-.276.225-.5.5-.5h66.833c.275 0 .5.224.5.5v17.133c0 .276-.225.5-.5.5h-66.833c-.275 0-.5-.224-.5-.5z" fill="#ffffff" data-original="#000000" style=""/></g></g></svg>
