<?xml version="1.0"?>
<svg xmlns="http://www.w3.org/2000/svg" xmlns:xlink="http://www.w3.org/1999/xlink" xmlns:svgjs="http://svgjs.com/svgjs" version="1.1" width="512" height="512" x="0" y="0" viewBox="0 0 512 512" style="enable-background:new 0 0 512 512" xml:space="preserve"><g><g xmlns="http://www.w3.org/2000/svg"><path d="m487.359 146.279c-1.777-3.741-6.25-5.333-9.993-3.556-3.742 1.777-5.333 6.251-3.556 9.993 15.388 32.389 23.19 67.139 23.19 103.284 0 64.374-25.068 124.894-70.587 170.413s-106.039 70.587-170.413 70.587c-38.177 0-74.687-8.664-108.513-25.751-28.185-14.238-53.648-34.227-74.324-58.247l29.591 9.864c3.929 1.31 8.177-.814 9.487-4.744s-.814-8.177-4.744-9.487l-53.25-17.75c-2.465-.821-5.182-.309-7.177 1.357-1.996 1.666-2.986 4.246-2.619 6.819l8.875 62.125c.535 3.741 3.743 6.44 7.416 6.44.353 0 .71-.025 1.07-.076 4.101-.586 6.95-4.385 6.364-8.485l-4.952-34.663c21.699 24.78 48.207 45.438 77.501 60.236 35.942 18.156 74.726 27.362 115.275 27.362 68.38 0 132.667-26.629 181.02-74.98 48.352-48.353 74.98-112.64 74.98-181.02 0-38.388-8.291-75.304-24.641-109.721z" fill="#ffffff" data-original="#000000" style=""/><path d="m15 256c0-64.374 25.068-124.894 70.587-170.413s106.039-70.587 170.413-70.587c70.856 0 136.903 30.494 182.817 83.991l-29.57-9.857c-3.929-1.31-8.177.814-9.487 4.744s.814 8.177 4.744 9.487l53.25 17.75c.775.258 1.576.385 2.371.385 1.732 0 3.439-.6 4.807-1.742 1.996-1.666 2.986-4.246 2.619-6.819l-8.875-62.125c-.586-4.101-4.391-6.95-8.485-6.364-4.101.586-6.95 4.385-6.364 8.485l4.947 34.628c-48.707-55.803-118.236-87.563-192.774-87.563-68.38 0-132.667 26.629-181.02 74.98-48.351 48.353-74.98 112.64-74.98 181.02 0 38.388 8.291 75.304 24.641 109.721 1.284 2.703 3.974 4.284 6.78 4.284 1.078 0 2.174-.234 3.213-.728 3.741-1.777 5.333-6.251 3.556-9.993-15.388-32.389-23.19-67.139-23.19-103.284z" fill="#ffffff" data-original="#000000" style=""/><path d="m131.887 370.491c-2.808-3.043-7.553-3.234-10.598-.424-3.043 2.809-3.234 7.554-.424 10.598 34.718 37.616 83.973 59.19 135.136 59.19 101.378 0 183.855-82.477 183.855-183.855s-82.478-183.855-183.856-183.855-183.855 82.477-183.855 183.855c0 34.653 9.693 68.41 28.031 97.623 2.202 3.508 6.83 4.567 10.34 2.364 3.508-2.202 4.566-6.832 2.364-10.34-16.836-26.819-25.735-57.819-25.735-89.647 0-58.373 29.776-109.917 74.934-140.256l-6.244 27.62c-2.622 11.596.061 23.629 7.36 33.015l28.1 36.129c1.426 1.833 3.615 2.896 5.919 2.896.16 0 .321-.005.482-.016 2.479-.159 4.718-1.536 5.979-3.676l18.108-30.721c2.632-4.465 7.278-7.472 12.429-8.044l33.136-3.682c1.693-.188 3.271-.947 4.475-2.151l61.3-61.3c22.484 11.593 42.038 28.092 57.255 48.066l-19.313 39.27c-7.174 14.586-4.787 31.823 6.08 43.912l44.854 49.894c-14.581 78.373-83.466 137.9-166.001 137.9-46.986-.001-92.224-19.816-124.111-54.365zm131.191-215.844-30.522 3.391c-9.82 1.091-18.677 6.824-23.694 15.335l-12.503 21.212-21.323-27.416c-4.532-5.827-6.198-13.298-4.57-20.498l9.345-41.333c22.903-11.629 48.793-18.194 76.19-18.194 22.092 0 43.203 4.271 62.56 12.021zm125.224 72.386c-6.748-7.505-8.229-18.207-3.775-27.263l15.583-31.686c15.69 25.625 24.746 55.732 24.746 87.916 0 3.786-.138 7.54-.385 11.265z" fill="#ffffff" data-original="#000000" style=""/><path d="m223.274 233.422c.812-4.062-1.822-8.013-5.884-8.825-4.066-.811-8.013 1.822-8.825 5.884l-5.532 27.659c-1.977 9.884-.14 20.045 5.172 28.611l22.571 36.396c6.351 10.24 9.707 22.021 9.707 34.07v11.917c0 8.172 4.915 15.382 12.521 18.369 2.373.932 4.831 1.384 7.262 1.384 5.364 0 10.587-2.204 14.414-6.324l65.394-70.424c5.947-6.405 8.989-15.078 8.344-23.795s-4.929-16.848-11.754-22.308l-49.114-39.291c-8.494-6.795-19.541-9.811-30.311-8.272l-10.577 1.511c-4.101.586-6.95 4.385-6.364 8.485.585 4.1 4.378 6.948 8.485 6.364l10.577-1.511c6.688-.958 13.545.917 18.82 5.136l49.114 39.291c3.633 2.906 5.822 7.062 6.166 11.701.343 4.64-1.211 9.072-4.377 12.481l-65.393 70.424c-1.982 2.134-4.298 1.54-5.201 1.186-.903-.355-3.004-1.494-3.004-4.407v-11.917c0-14.845-4.135-29.359-11.959-41.976l-22.571-36.396c-3.298-5.318-4.439-11.627-3.211-17.764z" fill="#ffffff" data-original="#000000" style=""/></g></g></svg>
