<?xml version="1.0"?>
<svg xmlns="http://www.w3.org/2000/svg" xmlns:xlink="http://www.w3.org/1999/xlink" xmlns:svgjs="http://svgjs.com/svgjs" version="1.1" width="512" height="512" x="0" y="0" viewBox="0 0 512 512" style="enable-background:new 0 0 512 512" xml:space="preserve" class=""><g><path xmlns="http://www.w3.org/2000/svg" d="m494.5 0h-14.632c-4.142 0-7.5 3.357-7.5 7.5s3.358 7.5 7.5 7.5h14.632c1.378 0 2.5 1.121 2.5 2.5v336c0 1.379-1.122 2.5-2.5 2.5h-65.148c2.744-4.716 4.985-9.758 6.65-15.054 16.279 3.61 28.408-16.023 28.408-32.546 0-12.174-6.318-20.353-14.264-24.039 2.06-8.39 4.266-22.435 1.348-37.568-6.743-34.988-28.86-58.274-86.614-58.274-57.751 0-79.871 23.285-86.614 58.273-2.907 15.078-.728 29.073 1.324 37.475-9.382 4.292-14.241 14.364-14.241 24.134 0 16.377 12.062 36.171 28.409 32.546 1.665 5.295 3.907 10.338 6.652 15.054h-56.64v-11.068c2.645-2.851 4.265-6.666 4.265-10.853v-23.064c0-8.805-7.163-15.968-15.968-15.968h-8.032v-84.5c0-4.143-3.358-7.5-7.5-7.5s-7.5 3.357-7.5 7.5v84.5h-8.032c-8.805 0-15.968 7.163-15.968 15.968v23.064c0 3.899 1.405 7.476 3.735 10.252v11.668h-171.27c-1.378 0-2.5-1.121-2.5-2.5v-33.635c0-4.143-3.358-7.5-7.5-7.5s-7.5 3.357-7.5 7.5v33.635c0 9.649 7.851 17.5 17.5 17.5h171.27v50.4c0 20.678 16.822 37.5 37.5 37.5h38.03v45.6c0 4.143 3.358 7.5 7.5 7.5h186.21c4.142 0 7.5-3.357 7.5-7.5v-47.1c0-7.937-1.699-15.579-5.049-22.715-1.761-3.749-6.228-5.36-9.977-3.602-3.75 1.761-5.362 6.228-3.602 9.977 2.407 5.126 3.627 10.623 3.627 16.34v39.6h-171.209v-45.6c0-4.143-3.358-7.5-7.5-7.5h-45.53c-12.407 0-22.5-10.094-22.5-22.5v-71.354h25v57.354c0 6.341 5.159 11.5 11.5 11.5h80.11v4.937c0 13.819 11.243 25.063 25.063 25.063h38.874c13.82 0 25.063-11.243 25.063-25.063v-4.937h2.629c5.687 0 11.158 1.208 16.263 3.591 3.729 1.743 8.206.152 9.968-3.624 1.752-3.753.13-8.216-3.624-9.968-7.106-3.317-14.712-4.999-22.607-4.999-.672 0-23.958-.001-24.63-.001v-14.219c11.657-3.694 22.082-10.185 30.484-18.68h76.637c9.649 0 17.5-7.851 17.5-17.5v-336c0-9.649-7.851-17.5-17.5-17.5zm-55.475 326.252c.599-5.881.31-9.289.385-18.546.003-.075.004-.15.004-.226.012-3.806 1.22-8.716 2.425-10.179 3.754.747 7.57 3.954 7.57 11.099.001 7.888-5.783 19.109-10.384 17.852zm-146.029-76.621c5.339-27.703 21.111-46.112 71.885-46.112 50.778 0 66.546 18.413 71.885 46.113 2.82 14.625-.32 28.396-2.04 34.298-4.446 2.51-6.977 7.079-8.417 11.541-18.2-30.668-63.586-27.993-83.719-51.931-4.772-5.676-9.751-7.176-13.682-7.176-13.453 0-23.582 17.915-24.589 30.107-.257 2.907-1.245 15.431-2.41 25.151-1.523-3.091-3.72-5.919-6.889-7.702-1.727-5.865-4.867-19.55-2.024-34.289zm-12.646 58.769c0-7.132 3.813-10.341 7.568-11.096 1.12 1.388 2.389 5.974 2.428 10.176 0 .07.002.14.004.21.075 9.203-.215 12.664.385 18.561-4.652 1.272-10.385-9.992-10.385-17.851zm-80.315 2.615c0-.533.434-.968.968-.968h31.064c.534 0 .968.435.968.968v23.064c0 .344-.181.647-.453.819-.024.014-.049.028-.073.042-.133.068-.283.107-.442.107h-31.064c-.186 0-.36-.053-.508-.145-.021-.014-.042-.029-.063-.042-.24-.177-.397-.461-.397-.781zm43.735 59.985h68.136c8.397 8.485 18.817 14.97 30.474 18.667v14.233c-12.974 0-87.857.001-98.61.001zm150.61 52.837c0 5.549-4.515 10.063-10.063 10.063h-38.874c-5.549 0-10.063-4.514-10.063-10.063v-4.937h59zm-22-19.938h-15v-11.137c2.48.25 4.995.377 7.54.377 2.517 0 5.006-.126 7.46-.371zm-7.54-25.759c-32.803 0-59.49-26.687-59.49-59.489v-3.101c3.034-.647 5.787-2.311 7.643-5.337 7.403-12.085.96-54.129 15.592-58.79.732-.237 2.011 1.16 2.525 1.771 25.116 29.866 73.642 24.609 85.009 55.679 1.018 2.781 3.067 4.961 5.772 6.14.826.36 1.672.607 2.519.766v2.872c0 32.802-26.687 59.489-59.57 59.489z" fill="#ffffff" data-original="#000000" style="" class=""/><path xmlns="http://www.w3.org/2000/svg" d="m7.5 295.365c4.142 0 7.5-3.357 7.5-7.5v-270.365c0-1.379 1.122-2.5 2.5-2.5h430.368c4.142 0 7.5-3.357 7.5-7.5s-3.358-7.5-7.5-7.5h-430.368c-9.649 0-17.5 7.851-17.5 17.5v270.365c0 4.143 3.358 7.5 7.5 7.5z" fill="#ffffff" data-original="#000000" style="" class=""/><path xmlns="http://www.w3.org/2000/svg" d="m319.815 64.092h-104c-4.142 0-7.5 3.357-7.5 7.5s3.358 7.5 7.5 7.5h104c4.142 0 7.5-3.357 7.5-7.5s-3.357-7.5-7.5-7.5z" fill="#ffffff" data-original="#000000" style="" class=""/><path xmlns="http://www.w3.org/2000/svg" d="m319.815 94.425h-104c-4.142 0-7.5 3.357-7.5 7.5s3.358 7.5 7.5 7.5h104c4.142 0 7.5-3.357 7.5-7.5s-3.357-7.5-7.5-7.5z" fill="#ffffff" data-original="#000000" style="" class=""/><path xmlns="http://www.w3.org/2000/svg" d="m319.815 124.759h-104c-4.142 0-7.5 3.357-7.5 7.5s3.358 7.5 7.5 7.5h104c4.142 0 7.5-3.357 7.5-7.5s-3.357-7.5-7.5-7.5z" fill="#ffffff" data-original="#000000" style="" class=""/><path xmlns="http://www.w3.org/2000/svg" d="m319.815 155.092h-104c-4.142 0-7.5 3.357-7.5 7.5s3.358 7.5 7.5 7.5h104c4.142 0 7.5-3.357 7.5-7.5s-3.357-7.5-7.5-7.5z" fill="#ffffff" data-original="#000000" style="" class=""/><path xmlns="http://www.w3.org/2000/svg" d="m177.868 103.694c0-29.5-24-53.5-53.5-53.5-14.805 0-28.225 6.045-37.921 15.797l-19.524-19.525c-3.295-3.295-8.208-4.271-12.513-2.488-4.307 1.784-7.09 5.95-7.09 10.612v114.01c0 6.336 5.15 11.49 11.48 11.49h114.02c4.658 0 8.821-2.779 10.608-7.08 1.788-4.304.816-9.22-2.485-12.534l-18.87-18.862c9.75-9.696 15.795-23.115 15.795-37.92zm-53.5-38.5c21.229 0 38.5 17.271 38.5 38.5s-17.271 38.5-38.5 38.5-38.5-17.271-38.5-38.5 17.271-38.5 38.5-38.5zm39.973 99.896h-102.021v-102.014l15.058 15.058c-4.15 7.599-6.51 16.309-6.51 25.56 0 29.5 24 53.5 53.5 53.5 9.251 0 17.962-2.361 25.561-6.511z" fill="#ffffff" data-original="#000000" style="" class=""/></g></svg>
