<?xml version="1.0"?>
<svg xmlns="http://www.w3.org/2000/svg" xmlns:xlink="http://www.w3.org/1999/xlink" xmlns:svgjs="http://svgjs.com/svgjs" version="1.1" width="512" height="512" x="0" y="0" viewBox="0 0 512 512" style="enable-background:new 0 0 512 512" xml:space="preserve" class=""><g><g xmlns="http://www.w3.org/2000/svg"><path d="m93.29 233.779c.539-4.083 4.28-6.974 8.39-6.435 4.082.538 6.974 4.28 6.435 8.363-.879 6.633-1.305 13.294-1.305 19.956 0 26.391 6.832 51.166 18.823 72.653 12.444 22.28 30.444 41.046 52.101 54.425 3.572 2.183 4.365 6.293 2.693 9.921l-38.608 83.226c-1.899 4.139-7.001 5.613-10.8 3.203-39.714-22.252-72.852-54.794-95.897-93.997-22.309-37.985-35.122-82.234-35.122-129.432 0-67.239 25.938-128.411 68.373-174.105 42.718-46.035 102.161-76.31 168.663-81.186 4.649-.312 8.022 3.345 8.022 7.824v91.872c0 3.968-3.09 7.2-6.974 7.484-27.978 3.345-53.547 14.4-74.524 30.982-21.459 16.952-38.126 39.686-47.708 65.85-1.417 3.883-5.726 5.868-9.61 4.45-3.883-1.417-5.868-5.726-4.45-9.609 10.517-28.744 28.885-53.746 52.499-72.398 21.543-17.036 47.453-28.772 75.77-33.279v-77.5c-59.33 6.35-112.253 34.243-150.748 75.686-39.912 43.002-64.319 100.603-64.319 163.929 0 44.505 12.048 86.146 33.024 121.892 20.382 34.696 49.21 63.836 83.651 84.615l32.627-70.329c-21.346-14.4-39.119-33.704-51.733-56.268-13.21-23.669-20.75-50.939-20.75-79.91.002-7.313.513-14.627 1.477-21.883zm194.232-40.905c3.061 2.778 3.316 7.512.538 10.573-2.749 3.09-7.483 3.345-10.573.567-.028-.028-5.188-4.791-14.116-6.293v46.744c2.892 1.134 5.982 2.239 9.241 3.402 13.181 4.649 21.118 13.549 24.633 23.811 2.24 6.548 2.58 13.606 1.305 20.41-1.276 6.718-4.196 13.21-8.477 18.794-6.208 8.022-15.335 14.117-26.702 16.044v12.132c0 4.139-3.373 7.512-7.512 7.512s-7.483-3.373-7.483-7.512v-11.565c-4.422-.17-8.277-.595-12.104-1.531-6.038-1.502-11.651-4.139-18.794-8.815-3.458-2.269-4.422-6.917-2.183-10.375 2.268-3.458 6.917-4.422 10.375-2.154 5.698 3.713 9.922 5.754 14.174 6.803 2.579.624 5.329.964 8.532 1.105v-57.998c-6.86-3.004-13.748-6.52-19.645-11.14-4.648-3.657-7.767-8.589-9.439-14.06-1.616-5.386-1.814-11.311-.68-17.036 1.105-5.669 3.571-11.254 7.285-15.988 4.195-5.329 9.922-9.581 17.122-11.764 1.842-.539 3.6-.992 5.357-1.304v-10.97c0-4.139 3.345-7.483 7.483-7.483s7.512 3.345 7.512 7.483v10.375c14.994 1.814 24.094 10.205 24.151 10.233zm-39.147 5.726c-.369.085-.709.198-1.077.283-4.054 1.219-7.285 3.628-9.609 6.605-2.211 2.835-3.686 6.179-4.366 9.666-.68 3.401-.567 6.86.34 9.893.794 2.636 2.211 4.96 4.281 6.576 2.807 2.212 6.293 4.309 10.432 6.379v-39.402zm19.247 63.383c-1.445-.51-2.863-1.02-4.252-1.531v51.194c6.236-1.672 11.282-5.301 14.854-9.921 2.863-3.685 4.763-7.965 5.612-12.387.822-4.365.596-8.788-.765-12.841-2.097-6.152-7.087-11.566-15.449-14.514zm-11.622-133.626c35.149 0 66.983 14.258 90.029 37.304 23.018 23.018 37.275 54.851 37.275 90.001s-14.258 66.984-37.275 90.03c-23.046 23.018-54.88 37.276-90.029 37.276-35.15 0-66.983-14.258-90.001-37.276-23.046-23.046-37.304-54.879-37.304-90.03 0-35.15 14.258-66.983 37.304-90.001 23.018-23.046 54.851-37.304 90.001-37.304zm79.428 47.905c-20.324-20.324-48.417-32.911-79.428-32.911s-59.075 12.586-79.399 32.911-32.911 48.388-32.911 79.399c0 31.012 12.587 59.103 32.911 79.428 20.325 20.325 48.388 32.883 79.399 32.883s59.103-12.558 79.428-32.883c20.324-20.325 32.882-48.416 32.882-79.428 0-31.01-12.558-59.073-32.882-79.399zm-32.656-77.981c3.969 1.162 6.236 5.301 5.074 9.27-1.162 3.968-5.329 6.236-9.298 5.074-8.193-2.438-16.47-4.139-24.945-5.13-4.224-.482-6.662-3.913-6.662-7.938v-91.703c0-4.563 3.997-8.022 8.476-7.455 27.582 2.069 53.973 8.532 78.465 18.681 25.398 10.517 48.7 25.002 69.194 42.662 3.486 3.005 3.345 8.023.227 11.141l-65.027 65.027c-2.863 2.863-7.513 2.919-10.432.142-6.123-4.79-12.728-9.156-19.531-12.926-3.6-2.013-4.903-6.548-2.891-10.176 2.013-3.6 6.548-4.904 10.147-2.892 5.783 3.203 11.367 6.747 16.725 10.63l54.795-54.794c-17.745-14.315-37.561-26.136-58.905-34.98-20.749-8.618-43.001-14.4-66.246-16.867v77.5c7.029 1.133 14.002 2.693 20.834 4.734zm97.57 235.646c-1.955 3.629-6.491 4.961-10.119 2.977-3.629-1.956-4.961-6.52-3.005-10.12 5.811-10.686 10.347-22.224 13.436-34.356 2.977-11.735 4.535-24.039 4.535-36.766 0-17.178-2.863-33.647-8.164-48.898-5.499-15.874-13.607-30.53-23.811-43.456-2.608-3.288-1.899-7.455.906-10.29l64.858-64.83c3.26-3.288 8.646-2.835 11.338.879 19.504 22.706 35.095 48.898 45.725 77.5 10.317 27.81 15.959 57.828 15.959 89.095 0 70.697-28.658 134.704-74.978 181.022-46.318 46.319-110.325 74.978-181.022 74.978-15.562 0-30.87-1.418-45.865-4.139-15.336-2.778-30.133-6.888-44.278-12.217-4.28-1.616-5.953-6.321-4.082-10.375l38.693-83.453c1.616-3.487 5.556-5.131 9.127-3.969 7.427 2.41 15.081 4.28 22.876 5.528 7.569 1.19 15.42 1.814 23.528 1.814 22.139 0 43.115-4.79 61.939-13.379 19.615-8.957 36.934-22.025 50.881-38.126 2.693-3.118 7.428-3.458 10.545-.766 3.119 2.693 3.46 7.427.766 10.545-15.335 17.689-34.412 32.089-55.984 41.926-20.777 9.524-43.881 14.797-68.146 14.797-8.702 0-17.348-.681-25.881-2.041-6.406-1.021-12.699-2.41-18.793-4.139l-32.599 70.356c11.027 3.742 22.422 6.689 34.044 8.816 13.919 2.523 28.376 3.827 43.229 3.827 66.559 0 126.795-26.958 170.421-70.584 43.626-43.625 70.584-103.862 70.584-170.421 0-29.537-5.273-57.799-14.967-83.878-9.1-24.52-22.111-47.197-38.241-67.211l-54.821 54.823c9.355 12.869 16.866 27.184 22.167 42.52 5.867 16.895 9.042 34.98 9.042 53.745 0 13.918-1.729 27.468-5.018 40.395-3.345 13.323-8.391 26.023-14.825 37.871z" fill="#ffffff" data-original="#000000" style="" class=""/></g></g></svg>
