<?xml version="1.0"?>
<svg xmlns="http://www.w3.org/2000/svg" xmlns:xlink="http://www.w3.org/1999/xlink" xmlns:svgjs="http://svgjs.com/svgjs" version="1.1" width="512" height="512" x="0" y="0" viewBox="0 0 512 512" style="enable-background:new 0 0 512 512" xml:space="preserve" class=""><g><g xmlns="http://www.w3.org/2000/svg" fill="#060606"><path d="m270.051 302.057c15.502-.001 31.01-5.895 42.812-17.68 11.438-11.422 17.738-26.61 17.738-42.766s-6.3-31.344-17.738-42.767c-23.606-23.573-62.017-23.573-85.623 0-11.438 11.423-17.738 26.611-17.738 42.767 0 16.155 6.3 31.343 17.738 42.766 11.804 11.788 27.305 17.681 42.811 17.68zm-32.212-92.599c8.881-8.869 20.546-13.303 32.212-13.303s23.331 4.434 32.212 13.303c8.602 8.589 13.338 20.008 13.338 32.152 0 12.145-4.736 23.563-13.338 32.152-17.762 17.737-46.662 17.737-64.424 0-8.602-8.588-13.338-20.007-13.338-32.152 0-12.144 4.736-23.563 13.338-32.152z" fill="#ffffff" data-original="#060606" style=""/><path d="m325.809 170.273c1.917 0 3.835-.731 5.299-2.192l37.934-37.872c6.863-6.851-3.735-17.466-10.598-10.615l-37.934 37.872c-4.458 4.45-1.002 12.807 5.299 12.807z" fill="#ffffff" data-original="#060606" style=""/><path d="m345.271 192.807c3.534 2.932 7.07 2.935 10.606.009l37.934-37.872c6.863-6.851-3.735-17.466-10.598-10.615l-37.934 37.872c-2.931 2.926-2.935 7.675-.008 10.606z" fill="#ffffff" data-original="#060606" style=""/><path d="m504.338 415.169-24.923-.007-.151-75.115c-.009-4.135-3.362-7.484-7.498-7.485l-127.205-.033 165.239-164.997c2.934-3.538 2.934-7.076 0-10.614l-154.944-154.725c-2.928-2.924-7.672-2.924-10.6 0l-61.541 61.456c-6.861 6.853 3.738 17.466 10.6 10.614l56.241-56.164 144.329 144.125-170.465 170.218h-18.44l146.827-146.503c2.936-3.538 2.936-7.077.002-10.616-3.505-3.5-5.435-8.152-5.435-13.1.001-4.947 1.931-9.598 5.435-13.097 2.934-3.538 2.934-7.076 0-10.614l-78.521-78.41c-2.928-2.924-7.672-2.924-10.6 0-7.24 7.229-19.021 7.231-26.262 0-2.928-2.925-7.672-2.924-10.6 0l-237.533 237.181c-2.934 3.538-2.934 7.076 0 10.614 3.504 3.499 5.434 8.151 5.434 13.098 0 4.212-1.41 8.202-3.988 11.457l-32.059-.01-11.464-11.447 218.932-218.611c6.862-6.853-3.736-17.464-10.6-10.614l-224.246 223.918c-2.934 3.538-2.934 7.076 0 10.614l6.156 6.147-28.956-.008c-3.794 0-7.509 3.812-7.502 7.515l.164 81.831c.009 4.135 3.362 7.484 7.498 7.485l24.923.007.151 75.115c.009 4.135 3.362 7.484 7.498 7.485l251.932.121c9.342 0 10.221-15.048.002-15.05l-101.808-.029v-66.834l163.851.043v66.83l-16.93-.005c-9.878 0-9.88 15.045-.002 15.045h167.219c3.794 0 7.509-3.812 7.502-7.515l-.164-81.831c-.009-4.135-3.362-7.484-7.498-7.485zm-346.549-67.688 149.895.039 13.956.004v66.83l-163.851-.043zm306.625 66.911-127.774-.033v-13.122h127.748zm-.108-53.792h-45.877c-9.697 0-9.697 15 0 15h45.907l.021 10.636h-127.717v-10.636h49.027c9.697 0 9.697-15 0-15h-49.027v-13.072l127.64.033zm-360.693-57.416 228.109-227.771c10.863 6.806 24.808 6.806 35.669 0l69.098 69c-3.331 5.286-5.113 11.412-5.114 17.811 0 6.399 1.783 12.525 5.113 17.812l-152.745 152.406h-67.7l5.123-5.105c6.868-6.844-3.718-17.471-10.588-10.625l-15.786 15.73h-28.284l29.894-29.845c6.863-6.851-3.735-17.466-10.598-10.615l-37.934 37.872c-.769.768-1.332 1.663-1.698 2.616l-39.453-.012c1.317-3.625 2.007-7.49 2.007-11.462.001-6.4-1.782-12.526-5.113-17.812zm-88.49 98.052h102.544c9.697 0 9.697-15 0-15h-102.574l-.022-10.636h22.472c9.697 0 9.697-15 0-15h-22.502l-.027-13.156 127.774.033v13.123h-73.205c-9.697 0-9.697 15 0 15h73.206v38.708l-127.64-.033zm32.598 95.644-.026-13.039h45.877c9.697 0 9.697-15 0-15h-45.908l-.021-10.636h127.717v10.636h-49.027c-9.697 0-9.697 15 0 15h49.027v13.075zm127.639-53.674h-127.747l-.027-13.156 127.774.033zm193.851 53.758v-13.122h73.206c9.697 0 9.697-15 0-15h-73.206v-38.708l127.64.033.026 13.039h-102.544c-9.697 0-9.697 15 0 15h102.574l.021 10.636h-22.472c-9.697 0-9.697 15 0 15h22.502l.027 13.156z" fill="#ffffff" data-original="#060606" style=""/></g></g></svg>
