<?xml version="1.0"?>
<svg xmlns="http://www.w3.org/2000/svg" xmlns:xlink="http://www.w3.org/1999/xlink" xmlns:svgjs="http://svgjs.com/svgjs" version="1.1" width="512" height="512" x="0" y="0" viewBox="0 0 511.28 511.28" style="enable-background:new 0 0 512 512" xml:space="preserve"><g><g xmlns="http://www.w3.org/2000/svg"><path d="m485.94 106.63c4.142 0 7.5-3.358 7.5-7.5v-28.438c9.667-2.101 16.934-10.714 16.934-21.001v-28.191c0-11.855-9.645-21.5-21.5-21.5h-466.468c-11.855 0-21.5 9.645-21.5 21.5v28.191c0 10.287 7.267 18.9 16.934 21.001v245.148c-9.665 2.102-16.93 10.714-16.93 21v28.43c0 11.855 9.645 21.5 21.5 21.5h146.884l-44.119 102.909c-2.057 4.805-1.566 10.277 1.311 14.639 2.876 4.359 7.711 6.962 12.934 6.962h17.6c6.207 0 11.798-3.688 14.243-9.395l12.529-29.225h143.695l12.529 29.224c2.445 5.708 8.037 9.396 14.244 9.396h17.6c5.223 0 10.058-2.603 12.934-6.962 2.877-4.362 3.368-9.834 1.309-14.643l-44.117-102.905h146.884c11.855 0 21.5-9.645 21.5-21.5v-28.43c0-10.286-7.265-18.898-16.93-21v-181.71c0-4.142-3.358-7.5-7.5-7.5s-7.5 3.358-7.5 7.5v181.21h-371.24c-4.142 0-7.5 3.358-7.5 7.5s3.358 7.5 7.5 7.5h381.67c3.584 0 6.5 2.916 6.5 6.5v28.43c0 3.584-2.916 6.5-6.5 6.5h-466.46c-3.584 0-6.5-2.916-6.5-6.5v-28.43c0-3.584 2.916-6.5 6.5-6.5h49.79c4.142 0 7.5-3.358 7.5-7.5s-3.358-7.5-7.5-7.5h-39.36v-244.149h445.6v27.939c0 4.142 3.358 7.5 7.5 7.5zm-328.463 389.347c-.079.185-.258.304-.457.304h-17.6c-.093 0-.266 0-.413-.223-.149-.226-.079-.388-.043-.472l46.651-108.815h18.68zm133.189-109.206 16.6 38.72h-103.25l16.6-38.72zm-100.443 70.89 7.361-17.17h116.112l7.361 17.17zm182.092 37.921c.038.088.107.25-.042.476-.147.223-.32.223-.413.223h-17.6c-.198 0-.377-.119-.457-.305l-46.818-109.205h18.68zm-356.409-445.891v-28.191c0-3.584 2.916-6.5 6.5-6.5h466.468c3.584 0 6.5 2.916 6.5 6.5v28.191c0 3.584-2.916 6.5-6.5 6.5h-466.468c-3.584 0-6.5-2.916-6.5-6.5z" fill="#ffffff" data-original="#000000" style=""/><path d="m174.22 167.19h-32.14c-8.365 0-15.17 6.81-15.17 15.18v59.133h-43.1c-4.142 0-7.5 3.358-7.5 7.5s3.358 7.5 7.5 7.5h343.66c4.142 0 7.5-3.358 7.5-7.5s-3.358-7.5-7.5-7.5h-43.1v-104.503c0-8.371-6.805-15.18-15.17-15.18h-32.14c-8.37 0-15.18 6.81-15.18 15.18v104.503h-35v-85.183c0-8.365-6.806-15.17-15.17-15.17h-32.14c-8.365 0-15.17 6.805-15.17 15.17v85.184h-35v-59.133c0-8.371-6.81-15.181-15.18-15.181zm-32.31 15.181c0-.101.075-.18.17-.18h32.14c.097 0 .18.083.18.18v59.133h-32.49zm194.97-45.371c0-.098.083-.18.18-.18h32.14c.095 0 .17.079.17.18v104.503h-32.49zm-97.48 19.32c0-.099.072-.17.17-.17h32.14c.099 0 .17.071.17.17v85.184h-32.48z" fill="#ffffff" data-original="#000000" style=""/></g></g></svg>
