<?xml version="1.0" encoding="UTF-8" standalone="no"?>
<svg
   xmlns:dc="http://purl.org/dc/elements/1.1/"
   xmlns:cc="http://creativecommons.org/ns#"
   xmlns:rdf="http://www.w3.org/1999/02/22-rdf-syntax-ns#"
   xmlns:svg="http://www.w3.org/2000/svg"
   xmlns="http://www.w3.org/2000/svg"
   xmlns:sodipodi="http://sodipodi.sourceforge.net/DTD/sodipodi-0.dtd"
   xmlns:inkscape="http://www.inkscape.org/namespaces/inkscape"
   version="1.1"
   width="512"
   height="512"
   x="0"
   y="0"
   viewBox="0 0 512 512"
   style="enable-background:new 0 0 512 512"
   xml:space="preserve"
   id="svg34"
   sodipodi:docname="kvalifikatsiya.svg"
   inkscape:version="1.0.1 (3bc2e813f5, 2020-09-07)"><metadata
     id="metadata40"><rdf:RDF><cc:Work
         rdf:about=""><dc:format>image/svg+xml</dc:format><dc:type
           rdf:resource="http://purl.org/dc/dcmitype/StillImage" /></cc:Work></rdf:RDF></metadata><defs
     id="defs38" /><sodipodi:namedview
     pagecolor="#ffffff"
     bordercolor="#666666"
     borderopacity="1"
     objecttolerance="10"
     gridtolerance="10"
     guidetolerance="10"
     inkscape:pageopacity="0"
     inkscape:pageshadow="2"
     inkscape:window-width="1920"
     inkscape:window-height="1017"
     id="namedview36"
     showgrid="false"
     inkscape:zoom="0.58695387"
     inkscape:cx="134.75183"
     inkscape:cy="441.64022"
     inkscape:window-x="-8"
     inkscape:window-y="-8"
     inkscape:window-maximized="1"
     inkscape:current-layer="svg34" /><g
     id="g32"
     style="fill:#ffffff;fill-opacity:1"
     transform="translate(0,-20.792)"><g
       id="g30"
       style="fill:#ffffff;fill-opacity:1"><path
         d="m 504.5,20.792 h -83.501 c -4.143,0 -7.5,3.357 -7.5,7.5 0,4.143 3.357,7.5 7.5,7.5 h 66.031 l -14.25,15 H 39.22 l -14.25,-15 h 360.885 c 4.143,0 7.5,-3.357 7.5,-7.5 0,-4.143 -3.357,-7.5 -7.5,-7.5 H 7.5 c -4.143,0 -7.5,3.357 -7.5,7.5 v 405.5 c 0,4.143 3.357,7.5 7.5,7.5 h 185.4 c 4.143,0 7.5,-3.357 7.5,-7.5 0,-4.143 -3.357,-7.5 -7.5,-7.5 H 24.97 l 14.25,-15 H 192.9 c 4.143,0 7.5,-3.357 7.5,-7.5 0,-4.143 -3.357,-7.5 -7.5,-7.5 H 43.5 v -30.305 c 0,-4.143 -3.357,-7.5 -7.5,-7.5 -4.143,0 -7.5,3.357 -7.5,7.5 v 34.81 L 15,415.007 V 47.076 l 13.5,14.21 v 270.316 c 0,4.143 3.357,7.5 7.5,7.5 4.143,0 7.5,-3.357 7.5,-7.5 V 65.792 h 425 v 330.5 H 319.722 c -4.143,0 -7.5,3.357 -7.5,7.5 0,4.143 3.357,7.5 7.5,7.5 H 472.78 l 14.25,15 H 318.362 c -4.143,0 -7.5,3.357 -7.5,7.5 0,4.143 3.357,7.5 7.5,7.5 H 504.5 c 4.143,0 7.5,-3.357 7.5,-7.5 v -405.5 c 0,-4.143 -3.357,-7.5 -7.5,-7.5 z m -21,40.494 13.5,-14.21 v 367.931 l -13.5,-14.21 z"
         fill="#ffffff"
         data-original="#000000"
         style="fill:#ffffff;fill-opacity:1"
         id="path2" /><path
         d="m 312.209,381.009 c 6.066,-6.067 4.207,-14.918 2.567,-22.727 -0.641,-3.049 -1.712,-8.15 -1.186,-9.581 0.692,-1.325 4.831,-4.001 7.304,-5.6 6.503,-4.204 14.597,-9.437 14.597,-18.302 0,-8.865 -8.093,-14.098 -14.596,-18.302 -2.474,-1.599 -6.612,-4.274 -7.284,-5.554 -0.547,-1.478 0.524,-6.578 1.165,-9.626 1.641,-7.81 3.5,-16.66 -2.567,-22.727 -6.066,-6.068 -14.918,-4.207 -22.727,-2.568 -3.046,0.641 -8.147,1.713 -9.581,1.185 -1.325,-0.692 -4.001,-4.831 -5.6,-7.304 -4.204,-6.503 -9.437,-14.596 -18.302,-14.596 -8.865,0 -14.098,8.093 -18.302,14.596 -1.599,2.473 -4.274,6.611 -5.555,7.283 -1.477,0.55 -6.579,-0.524 -9.627,-1.164 -7.81,-1.643 -16.658,-3.499 -22.726,2.566 -6.067,6.068 -4.208,14.919 -2.567,22.728 0.641,3.049 1.712,8.149 1.186,9.581 -0.692,1.325 -4.831,4.001 -7.305,5.6 -6.503,4.204 -14.596,9.437 -14.596,18.302 0,8.865 8.093,14.098 14.597,18.302 2.472,1.599 6.61,4.273 7.282,5.553 0.548,1.479 -0.524,6.58 -1.164,9.629 -1.641,7.808 -3.5,16.658 2.567,22.726 5.424,5.423 13.069,4.512 20.209,3.086 v 99.614 c 0,2.627 1.375,5.063 3.624,6.421 2.249,1.357 5.043,1.438 7.369,0.216 L 256,477.184 l 25.007,13.161 c 1.096,0.576 2.295,0.863 3.493,0.863 1.345,0 2.687,-0.361 3.876,-1.079 2.249,-1.358 3.624,-3.794 3.624,-6.421 v -99.614 c 7.139,1.426 14.786,2.338 20.209,-3.085 z m -52.716,81.063 c -2.188,-1.15 -4.799,-1.15 -6.986,0 L 235,471.286 v -85.624 c 0.969,1.361 1.951,2.878 2.698,4.034 4.204,6.503 9.437,14.596 18.302,14.596 8.865,0 14.098,-8.094 18.302,-14.597 0.748,-1.157 1.732,-2.677 2.698,-4.038 v 85.629 z m 41.896,-91.882 c -1.973,0.141 -6.183,-0.738 -8.823,-1.293 -6.291,-1.322 -12.797,-2.69 -18.45,-0.344 -5.475,2.271 -9.001,7.724 -12.41,12.998 -1.481,2.291 -4.128,6.386 -5.705,7.558 -1.577,-1.173 -4.224,-5.267 -5.705,-7.558 -3.41,-5.274 -6.936,-10.728 -12.411,-12.998 -2.232,-0.926 -4.597,-1.272 -7.027,-1.272 -3.729,0 -7.615,0.816 -11.423,1.616 -2.642,0.555 -6.847,1.433 -8.823,1.292 -0.145,-1.983 0.738,-6.183 1.292,-8.822 1.322,-6.291 2.688,-12.797 0.344,-18.45 -2.27,-5.476 -7.724,-9.002 -12.997,-12.411 -2.291,-1.481 -6.385,-4.128 -7.558,-5.705 1.173,-1.577 5.267,-4.224 7.558,-5.705 5.274,-3.41 10.728,-6.936 12.998,-12.411 2.345,-5.654 0.978,-12.159 -0.344,-18.45 -0.555,-2.64 -1.437,-6.84 -1.293,-8.823 1.98,-0.146 6.183,0.738 8.823,1.292 6.289,1.322 12.795,2.689 18.45,0.344 5.476,-2.271 9.001,-7.724 12.411,-12.997 1.481,-2.291 4.128,-6.386 5.705,-7.558 1.577,1.172 4.224,5.267 5.705,7.558 3.41,5.273 6.936,10.727 12.41,12.997 5.653,2.345 12.158,0.979 18.451,-0.343 2.64,-0.555 6.835,-1.436 8.823,-1.293 0.145,1.983 -0.738,6.184 -1.293,8.824 -1.321,6.291 -2.688,12.796 -0.344,18.449 2.271,5.476 7.724,9.001 12.998,12.411 2.291,1.481 6.385,4.128 7.558,5.705 -1.172,1.577 -5.267,4.224 -7.558,5.705 -5.274,3.409 -10.728,6.936 -12.998,12.41 -2.345,5.654 -0.979,12.159 0.344,18.45 0.554,2.64 1.436,6.84 1.292,8.824 z"
         fill="#ffffff"
         data-original="#000000"
         style="fill:#ffffff;fill-opacity:1"
         id="path4" /><path
         d="m 256,297.676 c -14.956,0 -27.124,12.168 -27.124,27.124 0,14.956 12.168,27.124 27.124,27.124 14.956,0 27.124,-12.168 27.124,-27.124 0,-14.956 -12.168,-27.124 -27.124,-27.124 z m 0,39.248 c -6.686,0 -12.124,-5.438 -12.124,-12.124 0,-6.686 5.438,-12.124 12.124,-12.124 6.686,0 12.124,5.438 12.124,12.124 0,6.686 -5.438,12.124 -12.124,12.124 z"
         fill="#ffffff"
         data-original="#000000"
         style="fill:#ffffff;fill-opacity:1"
         id="path6" /><path
         d="m 81.16,341.492 h 64.895 c 4.143,0 7.5,-3.357 7.5,-7.5 0,-4.143 -3.357,-7.5 -7.5,-7.5 H 81.16 c -4.143,0 -7.5,3.357 -7.5,7.5 0,4.143 3.358,7.5 7.5,7.5 z"
         fill="#ffffff"
         data-original="#000000"
         style="fill:#ffffff;fill-opacity:1"
         id="path8" /><path
         d="m 81.16,376.492 h 84.895 c 4.143,0 7.5,-3.357 7.5,-7.5 0,-4.143 -3.357,-7.5 -7.5,-7.5 H 81.16 c -4.143,0 -7.5,3.357 -7.5,7.5 0,4.143 3.358,7.5 7.5,7.5 z"
         fill="#ffffff"
         data-original="#000000"
         style="fill:#ffffff;fill-opacity:1"
         id="path10" /><path
         d="m 430.839,326.492 h -64.894 c -4.143,0 -7.5,3.357 -7.5,7.5 0,4.143 3.357,7.5 7.5,7.5 h 64.894 c 4.143,0 7.5,-3.357 7.5,-7.5 0,-4.143 -3.358,-7.5 -7.5,-7.5 z"
         fill="#ffffff"
         data-original="#000000"
         style="fill:#ffffff;fill-opacity:1"
         id="path12" /><path
         d="m 430.839,361.492 h -84.894 c -4.143,0 -7.5,3.357 -7.5,7.5 0,4.143 3.357,7.5 7.5,7.5 h 84.894 c 4.143,0 7.5,-3.357 7.5,-7.5 0,-4.143 -3.358,-7.5 -7.5,-7.5 z"
         fill="#ffffff"
         data-original="#000000"
         style="fill:#ffffff;fill-opacity:1"
         id="path14" /><path
         d="m 132.886,95.077 c -2.69,-1.21 -5.84,-0.731 -8.051,1.224 L 105.483,113.433 86.132,96.3 c -2.211,-1.957 -5.363,-2.435 -8.051,-1.224 -2.69,1.212 -4.421,3.888 -4.421,6.839 v 39.849 c 0,2.147 0.921,4.192 2.528,5.615 l 24.323,21.533 c 1.419,1.257 3.195,1.885 4.972,1.885 1.777,0 3.553,-0.628 4.972,-1.885 l 24.323,-21.533 c 1.607,-1.423 2.528,-3.468 2.528,-5.615 v -39.849 c 10e-4,-2.951 -1.73,-5.626 -4.42,-6.838 z m -10.579,43.31 -16.823,14.894 -16.824,-14.894 v -19.815 l 11.852,10.492 c 2.838,2.514 7.105,2.514 9.943,0 l 11.852,-10.492 z"
         fill="#ffffff"
         data-original="#000000"
         style="fill:#ffffff;fill-opacity:1"
         id="path16" /><path
         d="M 430.839,105.727 H 173.262 c -4.143,0 -7.5,3.357 -7.5,7.5 0,4.143 3.357,7.5 7.5,7.5 h 257.577 c 4.143,0 7.5,-3.357 7.5,-7.5 0,-4.143 -3.358,-7.5 -7.5,-7.5 z"
         fill="#ffffff"
         data-original="#000000"
         style="fill:#ffffff;fill-opacity:1"
         id="path18" /><path
         d="M 430.839,140.727 H 281.845 c -4.143,0 -7.5,3.357 -7.5,7.5 0,4.143 3.357,7.5 7.5,7.5 h 148.994 c 4.143,0 7.5,-3.357 7.5,-7.5 0,-4.143 -3.358,-7.5 -7.5,-7.5 z"
         fill="#ffffff"
         data-original="#000000"
         style="fill:#ffffff;fill-opacity:1"
         id="path20" /><path
         d="m 173.262,155.727 h 73.416 c 4.143,0 7.5,-3.357 7.5,-7.5 0,-4.143 -3.357,-7.5 -7.5,-7.5 h -73.416 c -4.143,0 -7.5,3.357 -7.5,7.5 0,4.143 3.357,7.5 7.5,7.5 z"
         fill="#ffffff"
         data-original="#000000"
         style="fill:#ffffff;fill-opacity:1"
         id="path22" /><path
         d="m 135.762,183.227 c 0,4.143 3.357,7.5 7.5,7.5 h 267.577 c 4.143,0 7.5,-3.357 7.5,-7.5 0,-4.143 -3.357,-7.5 -7.5,-7.5 H 143.262 c -4.143,0 -7.5,3.357 -7.5,7.5 z"
         fill="#ffffff"
         data-original="#000000"
         style="fill:#ffffff;fill-opacity:1"
         id="path24" /><path
         d="m 430.839,210.727 h -55.1 c -4.143,0 -7.5,3.357 -7.5,7.5 0,4.143 3.357,7.5 7.5,7.5 h 55.1 c 4.143,0 7.5,-3.357 7.5,-7.5 0,-4.143 -3.358,-7.5 -7.5,-7.5 z"
         fill="#ffffff"
         data-original="#000000"
         style="fill:#ffffff;fill-opacity:1"
         id="path26" /><path
         d="m 348.261,218.227 c 0,-4.143 -3.357,-7.5 -7.5,-7.5 H 81.16 c -4.143,0 -7.5,3.357 -7.5,7.5 0,4.143 3.357,7.5 7.5,7.5 h 259.601 c 4.142,0 7.5,-3.357 7.5,-7.5 z"
         fill="#ffffff"
         data-original="#000000"
         style="fill:#ffffff;fill-opacity:1"
         id="path28" /></g></g></svg>
