<?xml version="1.0" encoding="UTF-8" standalone="no"?>
<svg
   xmlns:dc="http://purl.org/dc/elements/1.1/"
   xmlns:cc="http://creativecommons.org/ns#"
   xmlns:rdf="http://www.w3.org/1999/02/22-rdf-syntax-ns#"
   xmlns:svg="http://www.w3.org/2000/svg"
   xmlns="http://www.w3.org/2000/svg"
   xmlns:sodipodi="http://sodipodi.sourceforge.net/DTD/sodipodi-0.dtd"
   xmlns:inkscape="http://www.inkscape.org/namespaces/inkscape"
   id="Capa_1"
   enable-background="new 0 0 512 512"
   height="512"
   viewBox="0 0 512 512"
   width="512"
   version="1.1"
   sodipodi:docname="yazyk_obucheniya.svg"
   inkscape:version="1.0.1 (3bc2e813f5, 2020-09-07)">
  <metadata
     id="metadata35">
    <rdf:RDF>
      <cc:Work
         rdf:about="">
        <dc:format>image/svg+xml</dc:format>
        <dc:type
           rdf:resource="http://purl.org/dc/dcmitype/StillImage" />
      </cc:Work>
    </rdf:RDF>
  </metadata>
  <defs
     id="defs33" />
  <sodipodi:namedview
     pagecolor="#ffffff"
     bordercolor="#666666"
     borderopacity="1"
     objecttolerance="10"
     gridtolerance="10"
     guidetolerance="10"
     inkscape:pageopacity="0"
     inkscape:pageshadow="2"
     inkscape:window-width="1920"
     inkscape:window-height="1017"
     id="namedview31"
     showgrid="false"
     inkscape:zoom="0.41503905"
     inkscape:cx="-261.1392"
     inkscape:cy="424.86037"
     inkscape:window-x="-8"
     inkscape:window-y="-8"
     inkscape:window-maximized="1"
     inkscape:current-layer="text862"
     inkscape:document-rotation="0" />
  <g
     id="g28">
    <path
       d="m238 15.039h76.719c13.389 0 24.281 10.845 24.281 24.176v106.824h-141.719c-17.767 0-32.808 11.828-37.644 28h-82.637c-4.143 0-7.5 3.357-7.5 7.5s3.357 7.5 7.5 7.5h81v13h-111c-4.143 0-7.5 3.357-7.5 7.5s3.357 7.5 7.5 7.5h111v13h-111c-4.143 0-7.5 3.357-7.5 7.5s3.357 7.5 7.5 7.5h111v14c0 4.143 3.357 7.5 7.5 7.5s7.5-3.357 7.5-7.5v-73.824c0-13.331 10.893-24.176 24.281-24.176h203.719c4.143 0 7.5-3.357 7.5-7.5s-3.357-7.5-7.5-7.5h-47v-106.824c0-21.602-17.621-39.176-39.281-39.176h-76.719c-4.143 0-7.5 3.357-7.5 7.5s3.357 7.5 7.5 7.5z"
       id="path2"
       style="fill:#ffffff;fill-opacity:1" />
    <path
       d="m472.719 146.039h-36.719c-4.143 0-7.5 3.357-7.5 7.5s3.357 7.5 7.5 7.5h36.719c13.389 0 24.281 10.845 24.281 24.176v219.622c0 13.331-10.893 24.176-24.281 24.176h-25.425c-15.818 0-28.688 12.838-28.688 28.617v36.332c0 1.619-1.047 2.396-1.672 2.716-.635.325-1.9.727-3.246-.246l-85.855-61.984c-4.925-3.556-10.741-5.435-16.82-5.435h-113.732c-13.389 0-24.281-10.845-24.281-24.176v-110.798c0-4.143-3.357-7.5-7.5-7.5s-7.5 3.357-7.5 7.5v13.3l-59.688 43.092c-1.345.973-2.612.571-3.247.246-.625-.319-1.672-1.097-1.672-2.716v-36.331c0-15.779-12.869-28.617-28.688-28.617h-25.424c-13.388 0-24.281-10.845-24.281-24.176v-219.622c0-13.331 10.893-24.176 24.281-24.176h163.719c4.143 0 7.5-3.357 7.5-7.5s-3.357-7.5-7.5-7.5h-163.719c-21.66 0-39.281 17.574-39.281 39.176v219.622c0 21.602 17.621 39.176 39.281 39.176h25.425c7.547 0 13.688 6.108 13.688 13.617v36.332c0 6.808 3.771 12.966 9.841 16.07 4.834 2.412 12.411 3.088 18.858-1.438l50.907-36.754v78.997c0 21.602 17.621 39.176 39.281 39.176h113.731c2.907 0 5.687.897 8.04 2.597l85.855 61.984c4.882 3.203 11.454 4.937 18.857 1.438 6.07-3.104 9.841-9.263 9.841-16.07v-36.332c0-7.509 6.141-13.617 13.688-13.617h25.425c21.66 0 39.281-17.574 39.281-39.176v-219.622c.001-21.602-17.62-39.176-39.28-39.176z"
       id="path4"
       style="fill:#ffffff;fill-opacity:1" />
    <path
       d="m166.5 105.039h125c4.143 0 7.5-3.357 7.5-7.5s-3.357-7.5-7.5-7.5h-125c-4.143 0-7.5 3.357-7.5 7.5s3.357 7.5 7.5 7.5z"
       id="path10"
       style="fill:#ffffff;fill-opacity:1" />
    <path
       d="m166.5 133.039h95c4.143 0 7.5-3.357 7.5-7.5s-3.357-7.5-7.5-7.5h-95c-4.143 0-7.5 3.357-7.5 7.5s3.357 7.5 7.5 7.5z"
       id="path12"
       style="fill:#ffffff;fill-opacity:1" />
    <path
       d="m326 235.039h-125c-4.143 0-7.5 3.357-7.5 7.5s3.357 7.5 7.5 7.5h125c4.143 0 7.5-3.357 7.5-7.5s-3.357-7.5-7.5-7.5z"
       id="path14"
       style="fill:#ffffff;fill-opacity:1" />
    <path
       d="m201 278.039h95c4.143 0 7.5-3.357 7.5-7.5s-3.357-7.5-7.5-7.5h-95c-4.143 0-7.5 3.357-7.5 7.5s3.357 7.5 7.5 7.5z"
       id="path16"
       style="fill:#ffffff;fill-opacity:1" />
    <path
       d="m371.5 326.54c0-4.143-3.357-7.5-7.5-7.5h-132.999c-4.143 0-7.5 3.357-7.5 7.5s3.357 7.5 7.5 7.5h132.999c4.143 0 7.5-3.358 7.5-7.5z"
       id="path18"
       style="fill:#ffffff;fill-opacity:1" />
    <path
       d="m201.001 347.04c-4.143 0-7.5 3.357-7.5 7.5s3.357 7.5 7.5 7.5h65.999c4.143 0 7.5-3.357 7.5-7.5s-3.357-7.5-7.5-7.5z"
       id="path22"
       style="fill:#ffffff;fill-opacity:1" />
    <path
       d="m453.001 354.54c0-4.143-3.357-7.5-7.5-7.5h-143.501c-4.143 0-7.5 3.357-7.5 7.5s3.357 7.5 7.5 7.5h143.501c4.143 0 7.5-3.358 7.5-7.5z"
       id="path24"
       style="fill:#ffffff;fill-opacity:1" />
    <path
       d="m201.001 390.04h184.5c4.143 0 7.5-3.357 7.5-7.5s-3.357-7.5-7.5-7.5h-184.5c-4.143 0-7.5 3.357-7.5 7.5s3.357 7.5 7.5 7.5z"
       id="path26"
       style="fill:#ffffff;fill-opacity:1" />
    <g
       aria-label="AЦ"
       id="text862"
       style="font-style:normal;font-weight:normal;font-size:146.667px;line-height:1.25;font-family:sans-serif;fill:#000000;fill-opacity:1;stroke:none">
      <path
         d="M 97.174904,99.938607 84.713937,67.783587 72.252967,99.938607 Z M 39.238567,142.76423 77.480847,44.365557 q 2.29167,-5.156259 7.23309,-5.156259 5.08465,0 7.23309,5.156259 L 130.33252,143.1223 q 0.57292,1.4323 0.57292,3.07944 0,3.15105 -2.22005,5.3711 -2.22006,2.22006 -5.37111,2.22006 -3.15105,0 -5.29949,-2.22006 -1.14584,-1.14583 -1.71876,-2.4349 l -13.24873,-34.017 H 66.380557 l -13.32034,34.017 q -0.57292,1.28907 -1.71875,2.4349 -2.22006,2.22006 -5.37111,2.22006 -3.15105,0 -5.37111,-2.22006 -2.14844,-2.22005 -2.14844,-5.3711 0,-1.71876 0.78776,-3.43751 z"
         style="font-style:normal;font-variant:normal;font-weight:bold;font-stretch:normal;font-size:146.667px;font-family:Comfortaa;-inkscape-font-specification:'Comfortaa Bold';fill:#ffffff;fill-opacity:1"
         id="path864" />
      <path
         d="m 386.90368,309.56231 q -1.64714,0 -3.00782,-0.57292 -1.36068,-0.57292 -2.4349,-1.57552 -1.00261,-1.07422 -1.57552,-2.4349 -0.57292,-1.36068 -0.57292,-3.00782 v -99.40128 q 0,-1.57552 0.57292,-2.9362 0.57291,-1.43229 1.57552,-2.4349 1.07422,-1.07422 2.4349,-1.64714 1.36068,-0.57292 3.00782,-0.57292 1.57552,0 2.9362,0.57292 1.4323,0.57292 2.4349,1.64714 1.07423,1.00261 1.64714,2.4349 0.57292,1.36068 0.57292,2.9362 v 91.81011 h 51.13293 v -91.81011 q 0,-1.57552 0.57292,-2.9362 0.57292,-1.43229 1.57553,-2.4349 1.07422,-1.07422 2.4349,-1.64714 1.36068,-0.57292 3.00782,-0.57292 1.57552,0 2.9362,0.64453 1.36068,0.57292 2.36329,1.57553 1.07422,1.00261 1.64714,2.4349 0.64453,1.36068 0.64453,2.9362 v 91.81011 h 3.43751 q 1.57552,0 2.9362,0.57292 1.4323,0.57292 2.4349,1.64714 1.07423,1.00261 1.64714,2.4349 0.57292,1.36068 0.57292,2.93621 0,13.6068 -5.44272,24.7787 -0.93099,2.22006 -2.9362,3.50912 -1.9336,1.36068 -4.22527,1.36068 -1.57553,0 -2.93621,-0.64453 -1.36068,-0.57292 -2.4349,-1.57552 -1.00261,-1.00261 -1.64714,-2.4349 -0.57292,-1.36069 -0.57292,-2.93621 0,-1.86198 0.93099,-3.58074 2.64975,-5.15626 3.15105,-10.88544 z"
         style="font-style:normal;font-variant:normal;font-weight:bold;font-stretch:normal;font-size:146.667px;font-family:Comfortaa;-inkscape-font-specification:'Comfortaa Bold';fill:#ffffff;fill-opacity:1"
         id="path866" />
    </g>
  </g>
</svg>
